<?xml version="1.0" encoding="UTF-8"?>
<svg id="Layer_2" data-name="Layer 2" xmlns="http://www.w3.org/2000/svg" width="32" height="32" viewBox="0 0 32 32">
  <defs>
    <style>
      .cls-1 {
        fill: #010101;
      }

      .cls-2 {
        fill: #fff;
      }
    </style>
  </defs>
  <path class="cls-1" d="M30.07,7.86c-.21-.84-.87-1.49-1.74-1.76-.86-.26-1.64-.15-2.32.31-.35.24-.62.56-.83.86.48-2.48.59-3.53-.22-4.49-.89-1.06-2.57-1.46-3.67-.88-1.13.59-1.33,1.97-1.44,2.64-.12.82-.25,1.6-.36,2.33,0-1.23.02-2.5.11-3.73.03-.33.09-1.2-.45-1.98C18.39.09,17.06,0,16.91,0c-.43-.02-1.51.01-2.24.89-.91,1.09-.89,1.79-.84,4.1,0,.2.01.41.01.63.01.51.02.92.03,1.29-.37-2.18-.73-4.03-2.22-4.8h-.02c-.21-.12-.84-.44-1.71-.32-.88.12-1.68.72-2.05,1.52-.57,1.25-.16,2.82-.08,3.12.14.47.58,3.03,1.38,7.69.18,1.05.3,1.85.38,2.45-.17-.31-.35-.64-.53-.96-.33-.61-.61-1.14-.85-1.61-.89-1.72-1.38-2.67-2.56-3-1.02-.28-1.97.05-2,.07h-.03c-.13.05-.38.14-.66.33-.28.19-.59.47-.82.9-.48.88-.21,1.82-.12,2.09.72,2.08,1.64,4.27,2.32,5.88.31.72.57,1.34.73,1.77.81,2.09,2.3,4.98,3.68,6.41,1.31,1.36,4.44,3.13,6.66,3.44.56.08.97.11,1.44.11.51,0,1.07-.04,1.95-.11,1.41-.11,2.61-.27,4.1-1.3,1.64-1.13,2.27-1.83,2.92-2.79.76-1.13,1.3-2.16,1.81-4.11.54-2.07.86-3.98,1.27-6.41.12-.72.24-1.47.39-2.29l.07-.38c.81-4.69,1-5.8.75-6.76ZM27.87,14.37l-.07.38c-.14.82-.27,1.57-.39,2.3-.4,2.39-.71,4.27-1.24,6.28-.46,1.76-.92,2.64-1.61,3.66-.48.71-.94,1.3-2.54,2.4-1.1.76-1.93.93-3.38,1.04-1.64.12-2.06.15-3.08,0-1.9-.27-4.68-1.84-5.81-3.01-1.18-1.23-2.59-3.91-3.37-5.93-.17-.44-.44-1.08-.75-1.81-.67-1.58-1.59-3.75-2.29-5.78-.02-.05-.18-.54.03-.91.19-.36.51-.47.67-.52l.05-.02s.56-.19,1.11-.03c.53.15.84.69,1.65,2.25.25.48.53,1.02.87,1.64.49.9.88,1.61,1.19,2.1.27.42.76,1.2,1.5.98.83-.25.77-1.35.63-2.67-.11-1.01-.31-2.17-.43-2.86-.87-5.01-1.26-7.3-1.42-7.84-.13-.44-.29-1.45,0-2.1.19-.41.6-.64.92-.68.42-.06.7.09.84.16h.02c.89.47,1.16,2.1,1.48,3.99l.02.12c.32,1.88.59,3.51.81,4.69.12.64.22,1.1.3,1.42.1.38.28,1.09.95,1.05.69-.04.77-.77.81-1.13.03-.3.06-.72.07-1.24.03-.95.03-2.19,0-3.3-.01-.4-.03-.75-.04-1.11-.02-.59-.05-1.26-.07-2.31,0-.23-.01-.43-.01-.63-.05-2.21-.04-2.48.5-3.12.31-.38.86-.38,1.03-.37h.02s.74.05,1.09.55c.24.35.21.81.19,1.04-.11,1.41-.11,2.83-.12,4.21,0,.94,0,1.92-.04,2.87-.05,1.27-.02,2.23.01,2.82.07,1.33.18,1.44.34,1.61l.22.23h.31c.39.01.66-.23.8-.72.04-.14.09-.33.14-.59.11-.49.25-1.19.41-2.04.35-1.89.74-4.26,1.11-6.66.06-.43.2-1.31.67-1.56.44-.23,1.39-.04,1.86.52.43.51.28,1.34-.27,4.17-.11.53-.23,1.13-.35,1.8-.31,1.62-.54,2.95-.66,3.85-.05.35-.08.63-.09.83-.04.58.16.92.59,1,.39.08.69-.11.9-.57.05-.11.12-.27.21-.48.16-.4.37-.95.59-1.55.26-.7.9-2.49,1.34-4.03.08-.29.34-.87.75-1.15.31-.21.63-.25,1.06-.12.14.04.62.22.74.71.17.65-.07,2.04-.78,6.14Z"/>
  <path class="cls-2" d="M27.87,14.37l-.07.38c-.14.82-.27,1.57-.39,2.3-.4,2.39-.71,4.27-1.24,6.28-.46,1.76-.92,2.64-1.61,3.66-.48.71-.94,1.3-2.54,2.4-1.1.76-1.93.93-3.38,1.04-1.64.12-2.06.15-3.08,0-1.9-.27-4.68-1.84-5.81-3.01-1.18-1.23-2.59-3.91-3.37-5.93-.17-.44-.44-1.08-.75-1.81-.67-1.58-1.59-3.75-2.29-5.78-.02-.05-.18-.54.03-.91.19-.36.51-.47.67-.52l.05-.02s.56-.19,1.11-.03c.53.15.84.69,1.65,2.25.25.48.53,1.02.87,1.64.49.9.88,1.61,1.19,2.1.27.42.76,1.2,1.5.98.83-.25.77-1.35.63-2.67-.11-1.01-.31-2.17-.43-2.86-.87-5.01-1.26-7.3-1.42-7.84-.13-.44-.29-1.45,0-2.1.19-.41.6-.64.92-.68.42-.06.7.09.84.16h.02c.89.47,1.16,2.1,1.48,3.99l.02.12c.32,1.88.59,3.51.81,4.69.12.64.22,1.1.3,1.42.1.38.28,1.09.95,1.05.69-.04.77-.77.81-1.13.03-.3.06-.72.07-1.24.03-.95.03-2.19,0-3.3-.01-.4-.03-.75-.04-1.11-.02-.59-.05-1.26-.07-2.31,0-.23-.01-.43-.01-.63-.05-2.21-.04-2.48.5-3.12.31-.38.86-.38,1.03-.37h.02s.74.05,1.09.55c.24.35.21.81.19,1.04-.11,1.41-.11,2.83-.12,4.21,0,.94,0,1.92-.04,2.87-.05,1.27-.02,2.23.01,2.82.07,1.33.18,1.44.34,1.61l.22.23h.31c.39.01.66-.23.8-.72.04-.14.09-.33.14-.59.11-.49.25-1.19.41-2.04.35-1.89.74-4.26,1.11-6.66.06-.43.2-1.31.67-1.56.44-.23,1.39-.04,1.86.52.43.51.28,1.34-.27,4.17-.11.53-.23,1.13-.35,1.8-.31,1.62-.54,2.95-.66,3.85-.05.35-.08.63-.09.83-.04.58.16.92.59,1,.39.08.69-.11.9-.57.05-.11.12-.27.21-.48.16-.4.37-.95.59-1.55.26-.7.9-2.49,1.34-4.03.08-.29.34-.87.75-1.15.31-.21.63-.25,1.06-.12.14.04.62.22.74.71.17.65-.07,2.04-.78,6.14Z"/>
</svg>