<?xml version="1.0" encoding="UTF-8"?>
<svg id="Layer_2" data-name="Layer 2" xmlns="http://www.w3.org/2000/svg" viewBox="0 0 64 64">
  <defs>
    <style>
      .cls-1 {
        fill: #010101;
      }

      .cls-2 {
        fill: #fff;
      }
    </style>
  </defs>
  <path class="cls-1" d="M60.15,15.73c-.43-1.67-1.73-2.98-3.49-3.51-1.72-.52-3.28-.31-4.64.62-.71.49-1.25,1.12-1.65,1.73.96-4.96,1.17-7.06-.45-8.98-1.78-2.11-5.14-2.91-7.34-1.75-2.25,1.19-2.67,3.95-2.87,5.29-.25,1.65-.49,3.21-.73,4.67,0-2.46.03-5,.22-7.47.05-.66.18-2.41-.9-3.97C36.79.18,34.12.02,33.83,0c-.86-.05-3.02.02-4.49,1.79-1.81,2.18-1.78,3.57-1.67,8.19,0,.39.02.81.03,1.26.02,1.01.05,1.85.07,2.58-.73-4.35-1.45-8.07-4.44-9.59l-.04-.02c-.41-.22-1.67-.87-3.43-.62-1.76.24-3.37,1.44-4.1,3.05-1.14,2.5-.33,5.64-.15,6.24.27.93,1.16,6.06,2.77,15.37.36,2.1.6,3.69.76,4.9-.34-.61-.7-1.27-1.06-1.92-.67-1.22-1.22-2.28-1.7-3.23-1.78-3.44-2.76-5.34-5.12-5.99-2.05-.57-3.93.11-4.01.14l-.06.02c-.25.09-.76.27-1.33.64-.56.37-1.18.93-1.65,1.8-.95,1.76-.43,3.64-.24,4.17,1.43,4.16,3.29,8.55,4.64,11.75.61,1.44,1.14,2.69,1.46,3.53,1.61,4.17,4.6,9.97,7.36,12.83,2.62,2.73,8.88,6.25,13.32,6.89,1.12.16,1.94.23,2.88.23,1.01,0,2.15-.08,3.91-.21,2.82-.21,5.21-.54,8.2-2.59,3.29-2.26,4.55-3.65,5.84-5.58,1.52-2.25,2.6-4.32,3.62-8.22,1.09-4.14,1.73-7.97,2.53-12.82.24-1.44.49-2.94.77-4.57l.13-.76c1.62-9.37,2-11.6,1.51-13.52ZM55.74,28.75l-.13.76c-.28,1.65-.53,3.14-.77,4.59-.79,4.78-1.42,8.55-2.47,12.56-.92,3.51-1.84,5.28-3.22,7.32-.96,1.43-1.89,2.61-5.07,4.8-2.2,1.51-3.86,1.87-6.75,2.08-3.28.25-4.13.29-6.16,0-3.8-.54-9.37-3.68-11.61-6.01-2.36-2.46-5.17-7.82-6.73-11.85-.34-.89-.88-2.15-1.5-3.62-1.34-3.16-3.17-7.5-4.57-11.56-.04-.11-.35-1.08.05-1.82.39-.71,1.01-.93,1.35-1.05l.09-.03s1.12-.37,2.23-.07c1.07.3,1.68,1.39,3.29,4.51.49.96,1.05,2.04,1.74,3.29.98,1.8,1.76,3.21,2.39,4.2.53.84,1.53,2.4,2.99,1.96,1.65-.5,1.55-2.71,1.26-5.33-.22-2.01-.62-4.34-.86-5.73-1.73-10.02-2.53-14.6-2.84-15.69-.26-.89-.59-2.91,0-4.2.37-.81,1.21-1.27,1.83-1.36.83-.11,1.4.18,1.68.32l.05.03c1.78.91,2.33,4.17,2.96,7.95l.04.25c.63,3.76,1.18,7.01,1.62,9.37.24,1.27.44,2.2.6,2.85.19.76.56,2.17,1.91,2.09,1.38-.08,1.54-1.55,1.61-2.25.06-.6.11-1.43.14-2.48.06-1.91.05-4.37-.01-6.6-.02-.79-.05-1.49-.08-2.23-.05-1.18-.1-2.53-.15-4.62-.01-.45-.02-.87-.03-1.26-.1-4.43-.08-4.96.99-6.24.63-.76,1.73-.75,2.05-.73h.05s1.49.09,2.18,1.09c.49.7.42,1.62.38,2.08-.22,2.82-.22,5.66-.23,8.41,0,1.89-.01,3.84-.08,5.74-.1,2.53-.04,4.46.03,5.64.15,2.65.37,2.89.67,3.21l.44.46h.62c.78.02,1.31-.47,1.59-1.44.08-.28.17-.67.29-1.18.22-.97.5-2.39.81-4.08.7-3.78,1.49-8.51,2.21-13.33.13-.85.4-2.62,1.33-3.12.88-.47,2.77-.07,3.72,1.05.85,1.01.57,2.69-.55,8.33-.21,1.06-.45,2.26-.71,3.61-.62,3.24-1.08,5.9-1.33,7.71-.1.7-.16,1.26-.19,1.66-.08,1.15.32,1.83,1.18,2.01.78.16,1.38-.22,1.81-1.13.11-.23.25-.55.41-.96.33-.8.75-1.9,1.19-3.1.51-1.4,1.8-4.97,2.69-8.05.17-.59.68-1.74,1.5-2.3.62-.42,1.25-.49,2.12-.23.28.08,1.23.44,1.49,1.43.34,1.31-.14,4.07-1.56,12.29Z"/>
  <path class="cls-2" d="M55.74,28.75l-.13.76c-.28,1.65-.53,3.14-.77,4.59-.79,4.78-1.42,8.55-2.47,12.56-.92,3.51-1.84,5.28-3.22,7.32-.96,1.43-1.89,2.61-5.07,4.8-2.2,1.51-3.86,1.87-6.75,2.08-3.28.25-4.13.29-6.16,0-3.8-.54-9.37-3.68-11.61-6.01-2.36-2.46-5.17-7.82-6.73-11.85-.34-.89-.88-2.15-1.5-3.62-1.34-3.16-3.17-7.5-4.57-11.56-.04-.11-.35-1.08.05-1.82.39-.71,1.01-.93,1.35-1.05l.09-.03s1.12-.37,2.23-.07c1.07.3,1.68,1.39,3.29,4.51.49.96,1.05,2.04,1.74,3.29.98,1.8,1.76,3.21,2.39,4.2.53.84,1.53,2.4,2.99,1.96,1.65-.5,1.55-2.71,1.26-5.33-.22-2.01-.62-4.34-.86-5.73-1.73-10.02-2.53-14.6-2.84-15.69-.26-.89-.59-2.91,0-4.2.37-.81,1.21-1.27,1.83-1.36.83-.11,1.4.18,1.68.32l.05.03c1.78.91,2.33,4.17,2.96,7.95l.04.25c.63,3.76,1.18,7.01,1.62,9.37.24,1.27.44,2.2.6,2.85.19.76.56,2.17,1.91,2.09,1.38-.08,1.54-1.55,1.61-2.25.06-.6.11-1.43.14-2.48.06-1.91.05-4.37-.01-6.6-.02-.79-.05-1.49-.08-2.23-.05-1.18-.1-2.53-.15-4.62-.01-.45-.02-.87-.03-1.26-.1-4.43-.08-4.96.99-6.24.63-.76,1.73-.75,2.05-.73h.05s1.49.09,2.18,1.09c.49.7.42,1.62.38,2.08-.22,2.82-.22,5.66-.23,8.41,0,1.89-.01,3.84-.08,5.74-.1,2.53-.04,4.46.03,5.64.15,2.65.37,2.89.67,3.21l.44.46h.62c.78.02,1.31-.47,1.59-1.44.08-.28.17-.67.29-1.18.22-.97.5-2.39.81-4.08.7-3.78,1.49-8.51,2.21-13.33.13-.85.4-2.62,1.33-3.12.88-.47,2.77-.07,3.72,1.05.85,1.01.57,2.69-.55,8.33-.21,1.06-.45,2.26-.71,3.61-.62,3.24-1.08,5.9-1.33,7.71-.1.7-.16,1.26-.19,1.66-.08,1.15.32,1.83,1.18,2.01.78.16,1.38-.22,1.81-1.13.11-.23.25-.55.41-.96.33-.8.75-1.9,1.19-3.1.51-1.4,1.8-4.97,2.69-8.05.17-.59.68-1.74,1.5-2.3.62-.42,1.25-.49,2.12-.23.28.08,1.23.44,1.49,1.43.34,1.31-.14,4.07-1.56,12.29Z"/>
</svg>