<?xml version="1.0" encoding="UTF-8"?>
<svg id="Layer_2" data-name="Layer 2" xmlns="http://www.w3.org/2000/svg" width="32" height="32" viewBox="0 0 32 32">
  <defs>
    <style>
      .cls-1 {
        fill: #010101;
      }

      .cls-2 {
        fill: #fff;
      }
    </style>
  </defs>
  <path class="cls-1" d="M30.49,23.6c-.77-2.07-2.6-3.56-4.76-3.9-1.52-.23-2.8.18-3.62.58l-1.42-2.61,5.28-7.23c.89-.99,2.81-3.56,2.2-6.53-.07-.36-.78-3.55-2.85-3.71-.63-.05-1.28.21-1.88.75l-.06.05-7.39,9.97c-1.76-2.37-3.29-4.44-4.55-6.13-1.04-1.39-1.86-2.5-2.49-3.36-.33-.45-1.09-1.48-2.17-1.48-.04,0-.09,0-.13,0-1.77.14-2.46,2.85-2.59,3.39-.42,1.87.13,3.53.66,4.6l.03.06,6.69,9.28c-.36.63-.73,1.25-1.11,1.86-.2.33-.41.65-.62.98-.6-.29-1.38-.54-2.3-.58-.22,0-2.17-.05-3.82,1.24-2.15,1.68-3.35,5.16-1.63,8.1.82,1.41,2.18,2.41,3.83,2.82,1.41.35,2.96.24,4.14-.3,1.58-.72,2.5-2.17,3.17-3.23.43-.68.64-1.17.88-1.74.18-.42.38-.89.71-1.53.39-.74.83-1.46,1.31-2.15.49.7.93,1.44,1.3,2.21.28.58.41.93.54,1.27.15.4.29.78.62,1.37.55.98,1.48,2.62,3.43,3.61.43.22,1.48.75,2.89.74.25,0,.51-.02.78-.05,2.24-.31,3.58-1.84,4.05-2.49.34-.46,1.98-2.92.88-5.86ZM24.52,2.04c.17-.14.44-.33.68-.31.47.04,1.18,1.05,1.47,2.49.47,2.33-1.15,4.44-1.87,5.24l-4.95,6.78-2.91-3.97,7.57-10.22ZM28.37,28.55c-.36.49-1.37,1.65-3.03,1.88-1.33.18-2.38-.34-2.77-.54-1.53-.77-2.29-2.11-2.79-2.99-.28-.49-.38-.78-.52-1.15-.13-.36-.28-.76-.59-1.41-.57-1.17-1.27-2.28-2.08-3.3l-.6-.76-.6.76c-.78.99-1.47,2.07-2.06,3.19-.36.7-.58,1.2-.77,1.64-.22.53-.4.95-.77,1.52-.6.95-1.35,2.13-2.51,2.66-1.63.74-4.62.49-6.01-1.9-1.27-2.18-.34-4.88,1.26-6.13,1.24-.97,2.76-.92,2.82-.92.97.04,1.73.41,2.19.71l.63.41.42-.63c.35-.53.7-1.07,1.04-1.61.48-.77.94-1.55,1.38-2.34l.24-.43L6.07,7.26c-.41-.85-.82-2.13-.51-3.53.13-.6.35-1.15.58-1.54.23-.4.46-.64.63-.66.14-.01.42.13.96.86.63.86,1.45,1.96,2.49,3.36,1.24,1.66,2.74,3.68,4.45,6l.05.07,4.18,5.71-.03.03,2.66,4.88.7-.47c.46-.31,1.7-1,3.26-.76,1.59.24,2.99,1.39,3.56,2.92.84,2.24-.53,4.2-.68,4.42Z"/>
  <path class="cls-2" d="M24.8,9.46l-4.95,6.78-2.91-3.97,7.57-10.22c.17-.14.44-.33.68-.31.47.04,1.18,1.05,1.47,2.49.47,2.33-1.15,4.44-1.87,5.24Z"/>
  <path class="cls-2" d="M29.06,24.13c-.57-1.53-1.97-2.68-3.56-2.92-1.56-.24-2.8.45-3.26.76l-.7.47-2.66-4.88.03-.03-4.18-5.71-.05-.07c-1.71-2.32-3.22-4.34-4.45-6-1.04-1.4-1.86-2.5-2.49-3.36-.54-.73-.82-.87-.96-.86-.17.01-.4.26-.63.66-.23.4-.44.94-.58,1.54-.31,1.4.1,2.69.51,3.53l7.19,9.97-.24.43c-.44.79-.91,1.58-1.38,2.34-.34.54-.69,1.08-1.04,1.61l-.42.63-.63-.41c-.46-.3-1.22-.67-2.19-.71-.06,0-1.58-.05-2.82.92-1.6,1.24-2.53,3.94-1.26,6.13,1.39,2.39,4.39,2.64,6.01,1.9,1.16-.53,1.91-1.71,2.51-2.66.36-.58.54-.99.77-1.52.19-.44.4-.95.77-1.64.59-1.12,1.28-2.2,2.06-3.19l.6-.76.6.76c.81,1.02,1.51,2.13,2.08,3.3.31.65.46,1.05.59,1.41.14.37.24.66.52,1.15.5.88,1.26,2.22,2.79,2.99.39.2,1.44.73,2.77.54,1.66-.23,2.67-1.39,3.03-1.88.16-.22,1.52-2.17.68-4.42ZM9.29,27.54c-.48.55-1.17.89-1.89.92-.04,0-.07,0-.11,0-.68,0-1.34-.27-1.84-.75-.51-.49-.81-1.18-.8-1.87,0-1.35,1.08-2.48,2.44-2.59.07,0,.14,0,.21,0,1.34,0,2.5,1.02,2.63,2.35.07.71-.16,1.39-.64,1.94ZM15.48,17.94c-.44,0-.8-.36-.8-.8s.36-.8.8-.8.8.36.8.8-.36.8-.8.8ZM26.65,27.54c-.48.55-1.17.89-1.89.92-.04,0-.07,0-.11,0-.68,0-1.34-.27-1.84-.75-.51-.49-.81-1.18-.8-1.87,0-1.35,1.08-2.48,2.44-2.59.07,0,.14,0,.21,0,1.34,0,2.5,1.02,2.63,2.35.07.71-.16,1.39-.64,1.94Z"/>
  <path class="cls-1" d="M9.93,25.59c-.13-1.34-1.29-2.35-2.63-2.35-.07,0-.14,0-.21,0-1.36.11-2.43,1.24-2.44,2.59,0,.69.29,1.37.8,1.87.5.48,1.16.75,1.84.75.04,0,.07,0,.11,0,.72-.03,1.41-.36,1.89-.92.48-.55.7-1.24.64-1.94ZM8.14,26.53c-.21.24-.5.38-.8.39-.3.01-.6-.1-.82-.32-.22-.21-.34-.48-.34-.76,0-.27.12-.53.3-.72.19-.19.44-.32.73-.35.03,0,.06,0,.09,0,.56,0,1.06.43,1.11.97.03.28-.07.56-.27.79Z"/>
  <path class="cls-1" d="M27.29,25.59c-.13-1.34-1.29-2.35-2.63-2.35-.07,0-.14,0-.21,0-1.36.11-2.43,1.24-2.44,2.59,0,.69.29,1.37.8,1.87.5.48,1.16.75,1.84.75.04,0,.07,0,.11,0,.72-.03,1.41-.36,1.89-.92.48-.55.7-1.24.64-1.94ZM25.5,26.53c-.21.24-.5.38-.8.39-.3.01-.6-.1-.82-.32-.22-.21-.34-.48-.34-.76,0-.27.12-.53.3-.72.19-.19.44-.32.73-.35.03,0,.06,0,.09,0,.56,0,1.06.43,1.11.97.03.28-.07.56-.27.79Z"/>
  <path class="cls-1" d="M16.28,17.14c0,.44-.36.8-.8.8s-.8-.36-.8-.8.36-.8.8-.8.8.36.8.8Z"/>
</svg>