<?xml version="1.0" encoding="UTF-8"?>
<svg id="Layer_2" data-name="Layer 2" xmlns="http://www.w3.org/2000/svg" viewBox="0 0 64 64">
  <defs>
    <style>
      .cls-1 {
        fill: #010101;
      }

      .cls-2 {
        fill: #fff;
      }
    </style>
  </defs>
  <path class="cls-1" d="M60.98,47.2c-1.55-4.14-5.2-7.13-9.53-7.79-3.03-.46-5.6.37-7.24,1.17l-2.85-5.22,10.55-14.46c1.77-1.99,5.61-7.12,4.41-13.07-.15-.73-1.56-7.1-5.7-7.43-1.26-.1-2.55.42-3.75,1.49l-.11.1-14.77,19.94c-3.51-4.75-6.58-8.88-9.1-12.26-2.08-2.79-3.72-4.99-4.98-6.71-.66-.9-2.17-2.95-4.34-2.95-.09,0-.18,0-.27,0-3.54.27-4.93,5.7-5.17,6.78-.83,3.74.26,7.07,1.32,9.2l.06.11,13.38,18.57c-.71,1.25-1.46,2.5-2.22,3.71-.41.65-.83,1.31-1.25,1.95-1.2-.58-2.75-1.09-4.6-1.16-.44-.02-4.34-.09-7.64,2.48-4.3,3.35-6.69,10.33-3.27,16.2,1.65,2.82,4.37,4.83,7.66,5.65,2.82.7,5.91.47,8.28-.6,3.15-1.44,4.99-4.35,6.34-6.47.86-1.36,1.28-2.35,1.76-3.49.36-.83.76-1.78,1.43-3.07.78-1.48,1.65-2.92,2.61-4.3.98,1.4,1.85,2.89,2.6,4.43.56,1.15.82,1.86,1.07,2.53.29.8.57,1.55,1.25,2.74,1.11,1.96,2.97,5.25,6.86,7.21.87.44,2.96,1.49,5.78,1.49.5,0,1.01-.03,1.55-.11,4.48-.62,7.16-3.69,8.11-4.98.68-.93,3.95-5.85,1.77-11.71ZM49.03,4.07c.34-.28.88-.66,1.36-.62.95.07,2.36,2.09,2.94,4.98.94,4.65-2.3,8.88-3.74,10.48l-9.9,13.55-5.82-7.94,15.15-20.44ZM56.75,57.11c-.72.98-2.74,3.3-6.06,3.76-2.66.36-4.75-.69-5.54-1.09-3.06-1.54-4.57-4.22-5.58-5.98-.55-.97-.76-1.56-1.04-2.3-.26-.71-.56-1.52-1.19-2.81-1.14-2.34-2.54-4.56-4.16-6.6l-1.21-1.52-1.19,1.53c-1.55,1.99-2.94,4.13-4.11,6.38-.73,1.39-1.16,2.4-1.53,3.29-.45,1.06-.8,1.89-1.53,3.05-1.2,1.9-2.7,4.26-5.03,5.32-3.25,1.48-9.24.98-12.03-3.8-2.55-4.37-.68-9.76,2.51-12.25,2.48-1.94,5.51-1.84,5.64-1.84,1.95.07,3.46.81,4.38,1.41l1.26.82.84-1.25c.71-1.05,1.41-2.13,2.08-3.21.96-1.53,1.89-3.11,2.77-4.69l.48-.85L12.14,14.53c-.82-1.69-1.65-4.26-1.02-7.07.27-1.21.71-2.29,1.16-3.09.45-.79.92-1.29,1.26-1.31.28-.02.84.26,1.92,1.71,1.27,1.72,2.91,3.93,4.99,6.72,2.47,3.32,5.47,7.36,8.9,12l.1.13,8.37,11.43-.05.07,5.32,9.76,1.39-.93c.92-.62,3.4-1.99,6.53-1.52,3.19.49,5.99,2.78,7.13,5.84,1.67,4.49-1.05,8.41-1.37,8.84Z"/>
  <path class="cls-2" d="M49.59,18.91l-9.9,13.55-5.82-7.94,15.15-20.44c.34-.28.88-.66,1.36-.62.95.07,2.36,2.09,2.94,4.98.94,4.65-2.3,8.88-3.74,10.48Z"/>
  <path class="cls-2" d="M58.11,48.27c-1.14-3.06-3.94-5.35-7.13-5.84-3.12-.48-5.6.9-6.53,1.52l-1.39.93-5.32-9.76.05-.07-8.37-11.43-.1-.13c-3.43-4.64-6.43-8.67-8.9-12-2.08-2.79-3.72-5-4.99-6.72-1.07-1.45-1.63-1.73-1.92-1.71-.34.03-.81.52-1.26,1.31-.45.79-.89,1.88-1.16,3.09-.62,2.8.2,5.37,1.02,7.07l14.37,19.95-.48.85c-.88,1.58-1.81,3.15-2.77,4.69-.67,1.08-1.37,2.16-2.08,3.21l-.84,1.25-1.26-.82c-.92-.6-2.44-1.34-4.38-1.41-.13,0-3.16-.1-5.64,1.84-3.19,2.49-5.06,7.88-2.51,12.25,2.79,4.78,8.78,5.28,12.03,3.8,2.33-1.06,3.82-3.42,5.03-5.32.73-1.15,1.09-1.99,1.53-3.05.38-.89.8-1.9,1.53-3.29,1.18-2.25,2.56-4.39,4.11-6.38l1.19-1.53,1.21,1.52c1.62,2.04,3.02,4.26,4.16,6.6.63,1.29.92,2.1,1.19,2.81.27.74.49,1.32,1.04,2.3,1,1.77,2.51,4.44,5.58,5.98.79.4,2.88,1.45,5.54,1.09,3.32-.46,5.34-2.78,6.06-3.76.32-.43,3.04-4.35,1.37-8.84ZM18.58,55.07c-.96,1.1-2.34,1.77-3.78,1.83-.07,0-.14,0-.21,0-1.36,0-2.69-.54-3.68-1.5-1.03-.99-1.61-2.35-1.61-3.74,0-2.69,2.15-4.96,4.88-5.18.14-.01.28-.02.41-.02,2.69,0,5,2.03,5.26,4.71.13,1.41-.32,2.79-1.27,3.88ZM30.96,35.87c-.88,0-1.59-.71-1.59-1.59s.71-1.59,1.59-1.59,1.59.71,1.59,1.59-.71,1.59-1.59,1.59ZM53.3,55.07c-.96,1.1-2.34,1.77-3.78,1.83-.07,0-.14,0-.21,0-1.36,0-2.69-.54-3.68-1.5-1.03-.99-1.61-2.35-1.61-3.74,0-2.69,2.15-4.96,4.88-5.18.14-.01.28-.02.41-.02,2.68,0,5,2.03,5.26,4.71.14,1.41-.32,2.79-1.27,3.88Z"/>
  <path class="cls-1" d="M19.85,51.19c-.26-2.67-2.57-4.71-5.26-4.71-.14,0-.27,0-.41.02-2.72.21-4.87,2.49-4.88,5.18,0,1.39.58,2.75,1.61,3.74,1,.96,2.33,1.5,3.68,1.5.07,0,.14,0,.21,0,1.44-.06,2.82-.73,3.78-1.83.95-1.09,1.4-2.47,1.27-3.88ZM16.28,53.06c-.41.47-1,.76-1.6.79-.59.02-1.2-.21-1.65-.64-.43-.42-.67-.96-.67-1.52,0-.54.23-1.06.61-1.44.37-.39.89-.65,1.45-.69.06,0,.11,0,.17,0,1.12,0,2.12.86,2.22,1.94.05.57-.13,1.13-.53,1.58Z"/>
  <path class="cls-1" d="M54.57,51.19c-.26-2.67-2.58-4.71-5.26-4.71-.14,0-.28,0-.41.02-2.72.21-4.87,2.49-4.88,5.18,0,1.39.58,2.75,1.61,3.74,1,.96,2.33,1.5,3.68,1.5.07,0,.14,0,.21,0,1.44-.06,2.82-.73,3.78-1.83.96-1.09,1.41-2.47,1.27-3.88ZM51,53.06c-.41.47-1,.76-1.6.79-.59.02-1.2-.21-1.65-.64-.43-.42-.67-.96-.67-1.52,0-.54.23-1.06.61-1.44.37-.39.89-.65,1.45-.69.06,0,.11,0,.17,0,1.12,0,2.12.86,2.22,1.94.06.57-.13,1.13-.53,1.58Z"/>
  <path class="cls-1" d="M32.55,34.28c0,.88-.71,1.59-1.59,1.59s-1.59-.71-1.59-1.59.71-1.59,1.59-1.59,1.59.71,1.59,1.59Z"/>
</svg>